HIERARCHY
ROOT Hips
{
     OFFSET 1.88212 96.90440 -13.34250
     CHANNELS 6 Xposition Yposition Zposition Zrotation Xrotation Yrotation
     JOINT Spine
     {
          OFFSET 0.00000 11.89050 0.00000
          CHANNELS 3 Zrotation Xrotation Yrotation
          JOINT Spine1
          {
               OFFSET -0.00000 25.65740 0.12766
               CHANNELS 3 Zrotation Xrotation Yrotation
               JOINT HEad
               {
                    OFFSET 0.00000 8.73416 0.01134
                    CHANNELS 3 Zrotation Xrotation Yrotation
                    End Site
                    {
                         OFFSET -0.29000 12.77420 2.51395
                    }
               }
               JOINT LeftShoulder1
               {
                    OFFSET 8.99000 -0.36225 -0.22000
                    CHANNELS 3 Zrotation Xrotation Yrotation
                    JOINT LeftArm
                    {
                         OFFSET 10.28270 -0.00338 0.32212
                         CHANNELS 3 Zrotation Xrotation Yrotation
                         JOINT LeftForeArm
                         {
                              OFFSET 32.76690 0.09914 -1.42434
                              CHANNELS 3 Zrotation Xrotation Yrotation
                              JOINT LeftHand
                              {
                                   OFFSET 27.56430 0.08536 1.02216
                                   CHANNELS 3 Zrotation Xrotation Yrotation
                                   End Site
                                   {
                                        OFFSET 16.74430 -0.60000 1.50291
                                   }
                              }
                         }
                    }
               }
               JOINT RightShoulder
               {
                    OFFSET -8.99000 -0.36225 -0.22000
                    CHANNELS 3 Zrotation Xrotation Yrotation
                    JOINT RightArm
                    {
                         OFFSET -10.28270 -0.00338 0.32212
                         CHANNELS 3 Zrotation Xrotation Yrotation
                         JOINT RightForeArm
                         {
                              OFFSET -32.89710 0.09914 -1.42434
                              CHANNELS 3 Zrotation Xrotation Yrotation
                              JOINT RightHand
                              {
                                   OFFSET -27.49210 0.08536 1.02216
                                   CHANNELS 3 Zrotation Xrotation Yrotation
                                   End Site
                                   {
                                        OFFSET -16.63120 -0.60000 1.50291
                                   }
                              }
                         }
                    }
               }
          }
     }
     JOINT LeftUpLeg
     {
          OFFSET 8.94580 -8.66707 0.10165
          CHANNELS 3 Zrotation Xrotation Yrotation
          JOINT LeftLeg
          {
               OFFSET 0.00000 -44.42270 1.37270
               CHANNELS 3 Zrotation Xrotation Yrotation
               JOINT LeftFoot
               {
                    OFFSET -0.25355 -42.09240 -1.46059
                    CHANNELS 3 Zrotation Xrotation Yrotation
                    JOINT LeftToes
                    {
                         OFFSET -0.04000 -4.41509 8.49910
                         CHANNELS 3 Zrotation Xrotation Yrotation
                         End Site
                         {
                              OFFSET 0.08000 -0.04745 9.77979
                         }
                    }
               }
          }
     }
     JOINT RightUpLeg
     {
          OFFSET -8.94580 -8.66707 0.10165
          CHANNELS 3 Zrotation Xrotation Yrotation
          JOINT RightLeg
          {
               OFFSET 0.00000 -44.42270 1.37270
               CHANNELS 3 Zrotation Xrotation Yrotation
               JOINT RightFoot
               {
                    OFFSET 0.25355 -42.09240 -1.46059
                    CHANNELS 3 Zrotation Xrotation Yrotation
                    JOINT RightToes
                    {
                         OFFSET 0.04000 -4.41509 8.49910
                         CHANNELS 3 Zrotation Xrotation Yrotation
                         End Site
                         {
                              OFFSET -0.08000 -0.13745 9.77979
                         }
                    }
               }
          }
     }
}
MOTION
Frames: 19
Frame Time: 0.01667
48.08889 88.61333 -124.20296 8.68590 1.86853 -41.87935 -4.79419 19.03465 23.73696 0.01971 0.05464 -0.01514 -18.16506 -1.62958 21.18604 18.09631 32.43818 -22.88501 48.13052 -72.62800 97.42053 -63.86174 68.10864 -91.70610 5.10746 13.17043 4.48551 37.14169 24.17952 -23.90453 67.86164 -23.72600 63.46196 30.29784 46.73008 107.02155 3.00798 11.27242 -3.53708 14.09422 -29.21492 23.63101 5.09832 20.34620 -4.61811 12.89440 -0.00076 0.01115 -25.35208 -1.83286 4.10905 -20.93425 -19.91588 10.70643 7.61268 30.41064 -1.90769 10.80037 -0.00679 0.01370 -8.50102 -28.17493 -5.16409 
49.52354 87.05676 -125.74691 11.44039 2.37512 -45.39659 -8.11979 23.85591 22.27874 0.01735 0.05296 -0.00555 -14.47792 -5.12971 21.31264 11.50628 27.84743 -15.16615 44.62477 -68.77321 92.78598 -66.84801 68.43024 -89.46524 10.48512 13.24035 -4.88568 31.91873 21.91480 -15.85107 68.41355 -24.96100 60.27875 29.32128 48.45813 109.02904 -6.31222 14.54759 -2.32200 14.32178 -36.25653 26.38892 9.20117 27.10503 -4.23392 13.32909 0.00038 0.00895 -27.46965 -3.63942 3.70647 -21.37724 -29.41819 8.04220 3.74269 38.40141 4.47189 12.57574 -0.00325 0.02345 -9.23615 -29.95529 -4.60077 
51.03236 85.32739 -127.23351 13.74203 2.69041 -48.18053 -10.94380 29.18062 20.24524 0.01292 0.05325 0.00157 -10.09808 -7.86684 22.21725 5.91022 22.43986 -8.41337 45.01378 -66.65437 92.47942 -69.48537 68.77675 -87.47005 10.37854 12.18535 -3.24357 27.08127 18.89353 -8.31655 68.76291 -25.49597 58.95142 28.39193 49.68043 110.53564 2.50926 12.33382 -0.26732 15.35023 -42.46113 28.98750 13.34638 33.38110 -4.65466 13.65048 0.00244 0.00624 -29.79113 -5.34297 3.01484 -21.27584 -38.76864 4.71955 -2.84401 46.84270 13.21317 14.31579 0.00186 0.03178 -10.42521 -32.58544 -3.76092 
52.53728 83.64839 -128.57559 15.58999 2.84773 -50.28845 -13.19777 34.97118 17.88069 0.00711 0.05096 0.01267 -5.19583 -9.54945 23.98586 1.38638 16.33990 -2.56440 46.32889 -65.73170 93.40646 -72.16745 68.98872 -85.61188 12.46745 11.71200 -7.48872 22.66928 15.08449 -1.46471 69.02522 -25.64836 58.80370 27.85600 50.29547 111.53895 -3.73294 13.47462 -0.15492 16.87985 -47.82771 31.42747 17.50079 38.93737 -5.76958 13.99356 0.00435 0.00460 -32.26292 -6.81025 2.16857 -21.17483 -46.85006 1.37433 -12.17652 53.90618 24.21846 15.90063 0.00707 0.03227 -11.21042 -34.95369 -2.98899 
53.93549 81.90794 -129.65654 16.99488 2.86617 -51.76216 -14.88104 40.74518 15.45315 -0.00651 0.05313 0.03137 -0.87854 -11.02335 26.22869 -2.10295 10.13324 2.26852 47.82464 -65.55727 94.62439 -74.66124 68.96523 -83.95522 11.54810 11.09134 -5.57912 19.08691 10.86616 4.30200 69.16166 -25.47726 59.33303 27.39369 50.70070 112.32993 1.30478 12.25609 0.83732 18.58732 -52.37440 33.60006 21.55665 43.67717 -7.40659 14.46020 0.00529 0.00420 -34.60276 -8.00816 1.49071 -21.17378 -53.56742 -1.97074 -24.35560 58.89606 37.57968 17.33728 0.01127 0.02796 -12.82580 -38.22812 -2.82243 
55.15989 80.27353 -130.46033 17.98027 2.78032 -52.65071 -15.80448 45.32198 12.99732 -0.02019 -0.04138 0.03239 2.93457 -11.11928 28.54749 -4.52494 5.29508 6.16152 49.29519 -65.73827 95.94584 -77.15788 68.60860 -82.48455 12.09836 10.79903 -7.33892 16.40527 7.58513 8.64312 69.24355 -25.16496 60.31691 27.20502 50.77053 112.80029 -2.90680 12.63931 0.37980 20.13072 -56.11365 35.32059 25.35035 47.54600 -9.32236 15.10217 0.00551 0.00394 -36.75687 -8.94395 0.74472 -21.34610 -58.84016 -5.31948 -38.02726 61.47037 51.97802 18.58739 0.01252 0.02094 -14.00140 -40.67325 -2.49145 
56.11954 78.75126 -130.94275 18.07445 2.77117 -51.16943 -13.72446 49.57711 8.07488 -0.02493 -0.04285 0.02832 5.20545 -11.11057 31.32434 -6.29477 1.49163 9.34443 50.61905 -66.11210 97.04615 -79.43425 67.97451 -81.30238 10.99548 10.53239 -5.75344 14.31212 4.99424 11.87507 69.35282 -24.69890 61.50276 27.03416 50.74568 113.12450 0.00082 11.84781 0.79292 18.61142 -59.41100 32.87079 28.69092 50.59421 -11.28441 15.92942 0.00529 0.00358 -38.87575 -9.55768 0.27103 -24.23261 -61.60202 -11.95745 -50.64740 61.93749 64.91481 19.61669 0.01158 0.01404 -14.90617 -42.56326 -2.52998 
56.83253 77.39658 -131.19562 17.33472 2.74958 -47.72929 -8.40615 53.33774 0.57230 -0.02052 -0.03930 0.02150 6.05954 -11.18062 34.10062 -7.46757 -1.18191 11.81123 51.86040 -66.50808 98.13454 -81.42574 67.15157 -80.48080 10.62715 10.49253 -6.28646 13.09229 3.28962 13.81528 66.78568 -22.34180 65.25841 28.28549 46.97904 110.96899 -2.90593 11.96082 0.18374 13.35546 -61.97943 25.90300 31.41049 52.89269 -13.07953 16.91468 0.00494 0.00248 -40.86451 -9.98659 -0.27503 -28.29858 -61.34093 -19.33917 -59.15141 61.43001 72.76495 20.53550 0.01002 0.01005 -15.78087 -44.30876 -2.34327 
57.25060 76.35704 -131.21906 16.53911 2.62715 -44.56415 -4.41772 55.52421 -4.00838 -0.08257 -0.04851 0.10295 6.34990 -11.44650 35.40816 -7.25033 -2.58879 12.99879 59.20352 -69.52686 107.05080 -84.71413 68.39997 -75.41685 9.52144 10.25696 -4.94312 13.01634 2.16239 13.89898 65.09695 -20.87927 67.62590 28.42706 45.05404 110.64130 -1.25186 11.47243 0.31527 7.69367 -63.46785 18.86417 33.31371 54.48703 -14.47664 18.02319 0.00435 0.00127 -42.52682 -10.00962 -0.54987 -30.48672 -59.73160 -23.59272 -63.84086 60.83965 76.19849 21.45324 0.00826 0.00837 -16.22829 -45.58867 -2.42313 
57.38132 75.56497 -131.14801 15.70207 2.41213 -41.66686 -2.27755 56.38583 -5.48497 -0.07531 -0.05565 0.08973 6.05802 -11.80694 35.57644 -6.33031 -2.74251 12.77268 64.63757 -70.96857 113.18702 -87.32036 68.32837 -72.69064 8.76176 10.51072 -4.62940 13.69442 1.79117 12.56222 64.06684 -19.97560 69.20936 28.22300 44.14898 111.05559 -3.41011 11.45573 -0.42849 3.80824 -63.48520 14.52438 34.17279 54.79063 -16.16329 19.28621 0.00346 0.00036 -43.90498 -9.73184 -0.70330 -31.00263 -57.14302 -25.13471 -65.60712 60.52778 76.31162 22.45920 0.00684 0.00837 -16.77849 -46.93870 -2.26108 
57.16532 75.21394 -130.93860 14.84622 2.13958 -39.00494 -1.99931 55.96957 -4.17406 -0.06716 -0.06345 0.06895 5.30437 -12.07025 34.76537 -4.67133 -1.87152 11.50732 78.90461 -73.02888 129.67128 -87.08289 66.30536 -73.20950 3.18668 10.55073 -0.21247 14.81343 2.00696 10.09822 63.71788 -19.27375 70.19192 27.81594 43.91252 111.79089 -2.44264 10.95094 -0.31058 1.87962 -62.29541 12.83752 33.80386 53.96619 -17.70122 20.74673 0.00245 -0.00010 -45.09639 -9.55416 -0.73112 -30.35476 -53.79826 -24.64839 -64.98452 60.56922 73.79812 23.58421 0.00522 0.00860 -16.55171 -47.86182 -1.94927 
56.66954 75.11141 -130.68257 14.00850 1.82993 -36.56829 -3.16100 54.38375 -0.70641 -0.05774 -0.05454 0.05858 4.02410 -12.13577 33.08529 -2.56022 -0.06017 9.02145 88.72805 -73.55441 140.69040 -87.17652 65.17754 -73.55891 -0.10587 10.37270 2.05058 16.64612 2.92462 6.69232 63.55403 -18.82187 70.95523 27.40565 43.96490 112.49937 -4.03687 10.93930 -1.02889 1.56272 -60.20649 13.34686 32.46114 52.24656 -19.15062 22.38663 0.00149 -0.00048 -46.08646 -9.04375 -0.89955 -29.04565 -49.96730 -22.70841 -62.43266 60.97528 69.17410 24.83344 0.00355 0.00898 -17.10156 -49.26682 -1.64486 
55.87716 75.46709 -130.28146 13.20645 1.49652 -34.31726 -5.00489 51.52608 3.88988 -0.04296 -0.06218 0.03759 2.20038 -11.70056 30.87675 -0.02318 2.33154 5.53457 94.43487 -73.63333 147.01048 -87.20073 64.84214 -73.67461 16.46110 7.53694 -9.16723 13.94141 -0.82981 11.75006 65.01932 -23.44157 65.91029 25.71425 45.58146 114.05552 7.18116 10.16103 7.47567 2.19112 -57.32556 15.24674 30.29715 49.78217 -20.49270 24.21940 0.00030 -0.00087 -46.87720 -8.85347 -1.04894 -27.40191 -45.75355 -19.72538 -57.99544 61.62983 62.54929 26.17808 0.00091 0.00845 -16.41773 -49.19059 -0.59698 
54.89187 76.00578 -129.79482 12.43615 1.15274 -32.23790 -6.07838 48.42014 7.42166 0.02045 0.01281 -0.03024 -0.71224 -11.60252 29.25579 2.03483 4.52505 2.24811 98.24239 -73.74894 151.09453 -87.06082 65.05654 -73.64697 0.65859 9.99095 2.11396 16.50104 1.33498 7.46122 63.68135 -22.10807 68.69566 25.06041 46.16350 114.73884 -9.18356 10.63980 -3.64141 2.57656 -54.63139 16.73298 28.16883 47.64423 -21.68574 26.09417 -0.00017 -0.00069 -47.64463 -8.49318 -0.97611 -25.68365 -41.29276 -16.01012 -51.69546 62.37258 54.01043 27.58603 -0.00214 0.00771 -16.78831 -49.73711 0.17242 
53.80815 76.91088 -129.07423 11.69211 0.81959 -30.29403 -6.51760 45.14854 10.00780 0.02601 0.01746 -0.03305 -4.53867 -11.59694 28.06949 3.91850 6.47261 -0.71332 100.31184 -74.07362 153.25455 -86.47958 65.23797 -73.92307 27.68642 6.22834 -17.60371 18.82327 3.19718 3.53203 61.77505 -19.44726 73.62035 26.06583 43.74011 111.47770 12.93657 11.54474 13.29284 2.81252 -52.05367 17.89086 26.18182 45.75404 -22.81011 27.91843 0.00005 0.00032 -48.43843 -8.53456 -0.88267 -24.10919 -36.61850 -11.82104 -43.43034 62.84808 43.57306 29.06559 -0.00599 0.00623 -16.80499 -48.60068 1.12870 
52.71910 77.93347 -128.20685 10.96914 0.51827 -28.47422 -6.49769 41.79673 11.80914 0.02539 0.02463 -0.02865 -9.17734 -11.80081 27.31356 5.55684 8.39138 -3.35812 102.25671 -74.46060 155.24258 -85.68096 65.61059 -74.13360 16.06241 13.87425 -12.90975 20.85742 4.99371 0.37100 60.40998 -18.09311 76.28418 26.60655 42.07224 109.51050 -3.54204 8.62488 10.38564 3.00403 -49.58834 18.81638 24.40584 44.08229 -23.91697 29.61723 0.00069 0.00145 -49.11671 -8.59622 -0.90009 -22.81991 -31.83096 -7.30213 -33.47487 62.68533 31.57033 30.60648 -0.00998 0.00455 -17.52694 -47.98667 1.59195 
51.65360 79.22048 -127.10448 10.26649 0.25353 -26.75410 -6.13019 38.37808 12.94545 0.02227 0.02492 -0.02588 -14.45352 -12.32466 26.87198 1.52682 -0.05600 -1.78047 79.68868 -78.26850 128.29579 -87.13812 67.64348 -69.21738 22.08040 8.81686 -13.73581 22.49039 6.54841 -2.18665 59.58524 -17.16004 77.28889 26.41018 41.53387 108.88902 6.29893 10.22494 9.73880 3.14327 -47.15370 19.50553 22.79095 42.54939 -24.95879 31.17387 0.00166 0.00254 -49.24456 -8.05657 -0.62334 -21.91836 -26.86492 -2.65066 -22.62029 61.33333 18.88857 32.18809 -0.01496 0.00234 -13.91865 -30.09693 11.16839 
50.67472 80.46517 -125.90306 9.59137 0.02605 -25.15224 -5.58473 34.90060 13.53221 0.02184 0.02468 -0.02673 -19.05508 -12.30632 27.01858 3.15692 3.01978 -3.51311 94.90527 -78.52728 145.05661 -87.84470 68.50406 -66.66532 14.02631 12.81654 -10.19194 17.13884 1.01846 2.89492 62.71272 -18.75086 67.21568 25.73912 41.59283 109.19032 -3.77761 9.21790 7.60077 3.28454 -44.79532 20.02657 21.34851 41.15835 -25.93876 32.55795 0.00244 0.00289 -49.52017 -7.91988 -0.57559 -21.26248 -22.65927 1.40260 -13.80216 59.31430 8.58521 33.72619 -0.01787 0.00146 -17.06532 -38.94687 6.08392 
49.78122 81.83091 -124.58498 8.95392 -0.16042 -23.67757 -4.97368 31.38087 13.69703 0.01982 0.02921 -0.01984 -22.93950 -11.94321 27.70002 4.26144 5.71342 -4.95565 104.38737 -78.26971 155.29979 -80.81949 65.95107 -75.45932 13.35032 9.59798 -7.10066 18.85201 3.68578 0.74856 62.11403 -17.89253 67.91575 24.83496 42.01524 109.78890 2.07827 9.99330 7.21224 3.42406 -42.49897 20.40071 20.01497 39.82415 -26.79958 33.76671 0.00281 0.00234 -49.66457 -7.75493 -0.32198 -20.74081 -19.00700 4.95492 -6.77648 56.80269 0.37498 35.17009 -0.01841 0.00087 -17.42682 -34.20926 7.48894 
